<svg xmlns="http://www.w3.org/2000/svg" viewBox="0 0 427 78"><g fill="#FFF" fill-rule="evenodd"><path d="M25.168 54.336c-1.381 0-3.043-.168-4.984-.504V37.48h-9.912v16.352c-1.979.336-3.621.504-4.928.504-1.381 0-3.043-.168-4.984-.504V13.848a49.409 49.409 0 0 1 2.744-.336 24.43 24.43 0 0 1 2.184-.112c.672 0 1.428.037 2.268.112.84.075 1.745.187 2.716.336v14.84h9.912v-14.84a50.897 50.897 0 0 1 2.716-.336c.803-.075 1.54-.112 2.212-.112.672 0 1.428.037 2.268.112.84.075 1.745.187 2.716.336v39.984c-1.979.336-3.621.504-4.928.504zm18.256-.448a35.4 35.4 0 0 1-2.352.336c-.71.075-1.4.112-2.072.112a22.27 22.27 0 0 1-2.324-.14 46.277 46.277 0 0 1-2.94-.42L46.28 13.792c.97-.112 1.876-.205 2.716-.28a26.387 26.387 0 0 1 4.872 0c.84.075 1.801.168 2.884.28l12.376 40.04c-2.128.336-3.995.504-5.6.504-.747 0-1.493-.037-2.24-.112a33.663 33.663 0 0 1-2.408-.336l-2.128-7.784a25.083 25.083 0 0 1-2.996.672c-.952.15-1.895.224-2.828.224-.859 0-1.736-.065-2.632-.196-.896-.13-1.83-.327-2.8-.588l-2.072 7.672zm7.84-29.568l-3.752 14.392c.635.187 1.232.336 1.792.448.56.112 1.139.168 1.736.168.635 0 1.26-.047 1.876-.14.616-.093 1.26-.233 1.932-.42L51.264 24.32zm29.512 9.632c0 7.915 3.323 11.872 9.968 11.872a16.42 16.42 0 0 0 3.388-.336c1.064-.224 2.361-.597 3.892-1.12a30.185 30.185 0 0 1 2.464 8.288c-1.083.41-2.09.747-3.024 1.008-.933.261-1.83.457-2.688.588-.859.13-1.708.224-2.548.28-.84.056-1.708.084-2.604.084-3.173 0-5.964-.513-8.372-1.54-2.408-1.027-4.424-2.455-6.048-4.284-1.624-1.83-2.847-4.013-3.668-6.552-.821-2.539-1.232-5.301-1.232-8.288s.43-5.759 1.288-8.316c.859-2.557 2.1-4.77 3.724-6.636 1.624-1.867 3.63-3.323 6.02-4.368 2.39-1.045 5.096-1.568 8.12-1.568 1.792 0 3.49.13 5.096.392 1.605.261 3.397.784 5.376 1.568a16.336 16.336 0 0 1-.84 4.452c-.485 1.437-.99 2.697-1.512 3.78a51.102 51.102 0 0 0-2.044-.672 18.84 18.84 0 0 0-1.764-.448 17.38 17.38 0 0 0-1.68-.252 18.044 18.044 0 0 0-1.792-.084c-3.024 0-5.367 1.017-7.028 3.052-1.661 2.035-2.492 5.068-2.492 9.1zm46.312-.784l10.472 20.664c-.635.15-1.484.27-2.548.364-1.064.093-2.025.14-2.884.14-1.083 0-2.128-.047-3.136-.14a23.06 23.06 0 0 1-2.576-.364l-10.248-20.16 9.464-19.824c1.12-.187 2.09-.308 2.912-.364a37.046 37.046 0 0 1 3.92-.056 20.6 20.6 0 0 1 1.54.112c.504.056.99.112 1.456.168.467.056.868.103 1.204.14l-9.576 19.32zm-21.616-19.32a49.409 49.409 0 0 1 2.744-.336 24.43 24.43 0 0 1 2.184-.112c.672 0 1.428.037 2.268.112.84.075 1.745.187 2.716.336v39.984c-1.979.336-3.621.504-4.928.504-1.381 0-3.043-.168-4.984-.504V13.848zm122.864 0a64.096 64.096 0 0 1 2.548-.308c.915-.093 1.764-.14 2.548-.14.747 0 1.559.047 2.436.14.877.093 1.69.196 2.436.308l7.952 20.832 8.232-20.832a83.12 83.12 0 0 1 2.268-.308c.765-.093 1.521-.14 2.268-.14.784 0 1.587.047 2.408.14.821.093 1.624.196 2.408.308l1.904 39.984c-.597.112-1.26.224-1.988.336-.728.112-1.69.168-2.884.168-1.307 0-2.856-.168-4.648-.504l-.784-23.184-6.16 15.288a37.35 37.35 0 0 1-2.016.28c-.672.075-1.288.112-1.848.112s-1.139-.028-1.736-.084a13.626 13.626 0 0 1-1.848-.308l-5.488-15.064-.616 22.96c-1.568.336-3.061.504-4.48.504-1.307 0-2.819-.168-4.536-.504l1.624-39.984zM277 54.336c-1.381 0-3.043-.168-4.984-.504V13.848a49.409 49.409 0 0 1 2.744-.336 24.43 24.43 0 0 1 2.184-.112c.672 0 1.428.037 2.268.112.84.075 1.745.187 2.716.336v39.984c-1.979.336-3.621.504-4.928.504zm11.648-40.488c1.83-.187 3.519-.364 5.068-.532a45.495 45.495 0 0 1 4.9-.252c2.053 0 4.107.196 6.16.588 2.053.392 3.883 1.073 5.488 2.044 1.605.97 2.912 2.296 3.92 3.976 1.008 1.68 1.512 3.808 1.512 6.384 0 1.381-.159 2.623-.476 3.724-.317 1.101-.728 2.081-1.232 2.94a11.698 11.698 0 0 1-1.68 2.24 15.63 15.63 0 0 1-1.82 1.624l8.736 17.248c-.896.15-1.876.261-2.94.336a41.556 41.556 0 0 1-2.884.112c-.747 0-1.615-.037-2.604-.112a21.787 21.787 0 0 1-2.604-.336L300.24 35.52l.504-.28c.448-.224.943-.597 1.484-1.12a10.372 10.372 0 0 0 1.512-1.876c.467-.728.859-1.54 1.176-2.436.317-.896.476-1.83.476-2.8 0-1.867-.523-3.23-1.568-4.088-1.045-.859-2.333-1.288-3.864-1.288-.373 0-.69.019-.952.056-.261.037-.43.075-.504.112v32.032c-1.979.336-3.603.504-4.872.504-1.381 0-3.043-.168-4.984-.504V13.848zm34.496 0c1.83-.187 3.519-.364 5.068-.532a45.495 45.495 0 0 1 4.9-.252c2.053 0 4.107.196 6.16.588 2.053.392 3.883 1.073 5.488 2.044 1.605.97 2.912 2.296 3.92 3.976 1.008 1.68 1.512 3.808 1.512 6.384 0 1.381-.159 2.623-.476 3.724-.317 1.101-.728 2.081-1.232 2.94a11.698 11.698 0 0 1-1.68 2.24 15.63 15.63 0 0 1-1.82 1.624l8.736 17.248c-.896.15-1.876.261-2.94.336a41.556 41.556 0 0 1-2.884.112c-.747 0-1.615-.037-2.604-.112a21.787 21.787 0 0 1-2.604-.336l-7.952-18.312.504-.28c.448-.224.943-.597 1.484-1.12a10.372 10.372 0 0 0 1.512-1.876c.467-.728.859-1.54 1.176-2.436.317-.896.476-1.83.476-2.8 0-1.867-.523-3.23-1.568-4.088-1.045-.859-2.333-1.288-3.864-1.288-.373 0-.69.019-.952.056-.261.037-.43.075-.504.112v32.032c-1.979.336-3.603.504-4.872.504-1.381 0-3.043-.168-4.984-.504V13.848zm31.752 20.16c0-2.987.345-5.759 1.036-8.316.69-2.557 1.755-4.77 3.192-6.636 1.437-1.867 3.267-3.332 5.488-4.396 2.221-1.064 4.863-1.596 7.924-1.596s5.693.532 7.896 1.596c2.203 1.064 4.023 2.53 5.46 4.396 1.437 1.867 2.501 4.079 3.192 6.636.69 2.557 1.036 5.33 1.036 8.316 0 2.987-.345 5.74-1.036 8.26-.69 2.52-1.755 4.704-3.192 6.552-1.437 1.848-3.257 3.285-5.46 4.312-2.203 1.027-4.835 1.54-7.896 1.54s-5.703-.513-7.924-1.54c-2.221-1.027-4.05-2.464-5.488-4.312-1.437-1.848-2.501-4.032-3.192-6.552-.69-2.52-1.036-5.273-1.036-8.26zm24.808 0c0-8.139-2.37-12.208-7.112-12.208-4.853 0-7.28 4.07-7.28 12.208 0 4.07.588 7.103 1.764 9.1 1.176 1.997 2.996 2.996 5.46 2.996 4.779 0 7.168-4.032 7.168-12.096zm16.072-20.16c1.83-.187 3.519-.364 5.068-.532a45.495 45.495 0 0 1 4.9-.252c2.053 0 4.107.196 6.16.588 2.053.392 3.883 1.073 5.488 2.044 1.605.97 2.912 2.296 3.92 3.976 1.008 1.68 1.512 3.808 1.512 6.384 0 1.381-.159 2.623-.476 3.724-.317 1.101-.728 2.081-1.232 2.94a11.698 11.698 0 0 1-1.68 2.24 15.63 15.63 0 0 1-1.82 1.624l8.736 17.248c-.896.15-1.876.261-2.94.336a41.556 41.556 0 0 1-2.884.112c-.747 0-1.615-.037-2.604-.112a21.787 21.787 0 0 1-2.604-.336l-7.952-18.312.504-.28c.448-.224.943-.597 1.484-1.12a10.372 10.372 0 0 0 1.512-1.876c.467-.728.859-1.54 1.176-2.436.317-.896.476-1.83.476-2.8 0-1.867-.523-3.23-1.568-4.088-1.045-.859-2.333-1.288-3.864-1.288-.373 0-.69.019-.952.056-.261.037-.43.075-.504.112v32.032c-1.979.336-3.603.504-4.872.504-1.381 0-3.043-.168-4.984-.504V13.848zm-180.109 4.226a32.106 32.106 0 0 0-.766-2.086 30.335 30.335 0 0 0-.909-2.039c-.33-.67-.675-1.342-1.086-1.99-.411-.649-.858-1.288-1.446-1.894l-.596-.616-.73.66c-.756.685-1.517 1.366-2.263 2.06-.38.349-.756.701-1.135 1.052a26.265 26.265 0 0 0-.708-.839 41.179 41.179 0 0 0-5.405-5.134c-1.31-1.028-2.68-1.996-4.134-2.848-1.45-.857-2.96-1.634-4.544-2.267a30.113 30.113 0 0 0-4.898-1.516 28.745 28.745 0 0 0-5.136-.6 33.772 33.772 0 0 0-5.076.23 36.968 36.968 0 0 0-4.958.938 38.525 38.525 0 0 0-4.766 1.588 39.894 39.894 0 0 0-4.496 2.186 38.26 38.26 0 0 0-4.16 2.721 36.94 36.94 0 0 0-3.762 3.196 40.494 40.494 0 0 0-3.323 3.607 42.144 42.144 0 0 0-2.85 3.963 41.68 41.68 0 0 0-2.355 4.259 45.684 45.684 0 0 0-1.87 4.487l-.295.822.896.157c1.298.227 2.595.473 3.89.714l2.665.52-.07.182c-.163.429-.311.86-.456 1.292a40.843 40.843 0 0 0-1.74 8.005 37.376 37.376 0 0 0-.23 5.504c.072 1.843.27 3.692.625 5.518a34.023 34.023 0 0 0 1.52 5.38 38.038 38.038 0 0 0 2.382 5.083 29.159 29.159 0 0 0 3.339 4.664 33.554 33.554 0 0 0 4.105 3.937 38.836 38.836 0 0 0 4.64 3.238 42.037 42.037 0 0 0 5.044 2.522 43.673 43.673 0 0 0 5.328 1.82c1.816.481 3.659.862 5.525 1.104 1.866.238 3.749.361 5.637.345 1.888-.03 3.78-.178 5.653-.506 1.87-.325 3.726-.803 5.512-1.489a25.754 25.754 0 0 0 5.109-2.62l1.535-1.023-.981-1.42a248.822 248.822 0 0 0-2.27-3.225l-1.488-2.09c.218-.156.437-.313.65-.474a37.492 37.492 0 0 0 1.808-1.472 40.882 40.882 0 0 0 1.705-1.565 33.773 33.773 0 0 0 1.595-1.663 39.368 39.368 0 0 0 1.493-1.743 35.43 35.43 0 0 0 1.379-1.824c.435-.625.868-1.247 1.26-1.896.4-.644.777-1.3 1.134-1.965l-.383-.247c-.473.579-.94 1.158-1.436 1.714-.488.56-.99 1.105-1.502 1.64a46.104 46.104 0 0 1-3.223 3.028 45.95 45.95 0 0 1-3.484 2.67c-.6.412-1.21.805-1.83 1.175-.31.184-.622.363-.934.535-.302.168-.642.349-.904.47l-1.342.626.804 1.389 1.974 3.413c.334.58.676 1.156 1.014 1.734a22.42 22.42 0 0 1-2.979 1.134 28.076 28.076 0 0 1-4.844.99 32.896 32.896 0 0 1-4.982.199 37.915 37.915 0 0 1-4.992-.489 42.747 42.747 0 0 1-4.904-1.099 43.515 43.515 0 0 1-4.742-1.654 39.768 39.768 0 0 1-4.5-2.19 34.13 34.13 0 0 1-4.162-2.72 30.255 30.255 0 0 1-3.665-3.294 24.921 24.921 0 0 1-2.984-3.833 34.027 34.027 0 0 1-2.285-4.414 34.72 34.72 0 0 1-1.596-4.723 34.496 34.496 0 0 1-.925-4.934 36.587 36.587 0 0 1-.255-5.062c.037-1.697.175-3.402.443-5.09a35.4 35.4 0 0 1 .485-2.518c.098-.415.2-.83.314-1.24.109-.404.245-.828.371-1.186l.428-1.213-1.192-.145-3.929-.48a526.341 526.341 0 0 1-3.038-.403c.406-1.195.874-2.37 1.403-3.516a32.135 32.135 0 0 1 2.27-4.102c.428-.655.878-1.295 1.359-1.912a30.216 30.216 0 0 1 4.882-5.028 34.056 34.056 0 0 1 3.817-2.675 35.809 35.809 0 0 1 4.139-2.106 38.052 38.052 0 0 1 4.348-1.57 43.308 43.308 0 0 1 4.472-1.077c.75-.147 1.507-.262 2.264-.362.755-.106 1.513-.19 2.272-.249a40.099 40.099 0 0 1 4.538-.126c1.496.052 3.015.186 4.421.457a29.85 29.85 0 0 1 4.318 1.21c1.407.52 2.79 1.14 4.131 1.852a38.61 38.61 0 0 1 3.912 2.38 43.21 43.21 0 0 1 3.66 2.812 38.847 38.847 0 0 1 1.721 1.546c.28.265.552.536.825.805.264.266.545.558.77.806l1.055 1.166.932-1.064a337.553 337.553 0 0 0 3.384-3.936c.238.24.47.5.694.767.447.54.889 1.105 1.302 1.695.419.586.808 1.197 1.204 1.808.393.612.823 1.211 1.137 1.868.288.603.368.998.368.998H216c.004-.002-.099-.452-.333-1.18"/><path d="M189.392 38.41h-13.647l6.901-16.03 6.746 16.03zM181.424 11L161 56.988h.832c.45 0 .891.003 1.325.006l1.244.003c.687 0 1.593-.005 2.515-.04.562-.02 1.06-.598 1.237-1a729.47 729.47 0 0 0 4.772-11.156c.214-.512.36-.615.892-.615h.001c5.801.036 11.575.033 17.434.002.524 0 .671.1.871.595a662.096 662.096 0 0 0 4.65 11.096c.185.429.707 1.046 1.29 1.076.696.03 1.443.045 2.417.045h.002c.427 0 .86-.003 1.301-.006.455-.003.918-.006 1.393-.006H204L184.102 11h-2.678z"/></g></svg>
